<mxfile host="app.diagrams.net" agent="Mozilla/5.0 (Windows NT 10.0; Win64; x64) AppleWebKit/537.36 (KHTML, like Gecko) Chrome/135.0.0.0 Safari/537.36" version="26.2.12">
  <diagram name="Page-1" id="d2havD59LN84D_ZJ-XG0">
    <mxGraphModel dx="1109" dy="1221" grid="0" gridSize="10" guides="1" tooltips="1" connect="1" arrows="1" fold="1" page="0" pageScale="1" pageWidth="850" pageHeight="1100" math="0" shadow="0">
      <root>
        <mxCell id="0" />
        <mxCell id="1" parent="0" />
        <mxCell id="o6vTE8f5mXq4AGFgfrk5-10" value="" style="rounded=0;whiteSpace=wrap;html=1;" vertex="1" parent="1">
          <mxGeometry x="-8" y="338.25" width="403" height="181" as="geometry" />
        </mxCell>
        <mxCell id="o6vTE8f5mXq4AGFgfrk5-1" value="" style="rounded=0;whiteSpace=wrap;html=1;" vertex="1" parent="1">
          <mxGeometry x="58.5" y="-83" width="251" height="62" as="geometry" />
        </mxCell>
        <mxCell id="o6vTE8f5mXq4AGFgfrk5-2" value="" style="rounded=0;whiteSpace=wrap;html=1;" vertex="1" parent="1">
          <mxGeometry x="-8" y="76" width="403" height="173" as="geometry" />
        </mxCell>
        <mxCell id="o6vTE8f5mXq4AGFgfrk5-4" value="&lt;div&gt;Người dùng&lt;/div&gt;&lt;div&gt;(Truy cập qua trình duyệt)&lt;/div&gt;" style="text;strokeColor=none;fillColor=none;html=1;align=center;verticalAlign=middle;whiteSpace=wrap;rounded=0;fontSize=16;" vertex="1" parent="1">
          <mxGeometry x="81" y="-67" width="206" height="30" as="geometry" />
        </mxCell>
        <mxCell id="o6vTE8f5mXq4AGFgfrk5-6" style="edgeStyle=none;curved=1;rounded=0;orthogonalLoop=1;jettySize=auto;html=1;exitX=0.5;exitY=1;exitDx=0;exitDy=0;fontSize=12;startSize=8;endSize=8;entryX=0.479;entryY=0;entryDx=0;entryDy=0;entryPerimeter=0;" edge="1" parent="1">
          <mxGeometry relative="1" as="geometry">
            <mxPoint x="189" y="-21" as="sourcePoint" />
            <mxPoint x="190.03700000000003" y="76" as="targetPoint" />
          </mxGeometry>
        </mxCell>
        <mxCell id="o6vTE8f5mXq4AGFgfrk5-7" value="&lt;div&gt;Frontend (Client)&lt;/div&gt;&lt;div&gt;- HTML, CSS, JavaScript&lt;/div&gt;&lt;div&gt;- Hiển thị giao diện người dùng&lt;/div&gt;&lt;div&gt;- Quản lý thú cưng&lt;/div&gt;&lt;div&gt;- Đặt lịch khám &amp;amp; chăm sóc&lt;/div&gt;&lt;div&gt;- Quản lý tài khoản người dùng&lt;/div&gt;&lt;div&gt;- Xử lý giao diện đăng nhập/đăng ký&lt;/div&gt;" style="text;strokeColor=none;fillColor=none;html=1;align=left;verticalAlign=middle;whiteSpace=wrap;rounded=0;fontSize=16;direction=west;movable=1;resizable=1;rotatable=1;deletable=1;editable=1;locked=0;connectable=1;" vertex="1" parent="1">
          <mxGeometry x="49.25" y="89.5" width="269.5" height="146" as="geometry" />
        </mxCell>
        <mxCell id="o6vTE8f5mXq4AGFgfrk5-9" value="&lt;div&gt;Backend (Spring Boot)&lt;/div&gt;&lt;div&gt;- Xử lý yêu cầu từ frontend&lt;/div&gt;&lt;div&gt;- Quản lý người dùng&lt;/div&gt;&lt;div&gt;- Quản lý thú cưng&lt;/div&gt;&lt;div&gt;- Quản lý lịch khám&lt;/div&gt;&lt;div&gt;- Xử lý logic xác thực đăng nhập&lt;/div&gt;&lt;div&gt;- Gửi phản hồi về frontend&lt;/div&gt;" style="text;strokeColor=none;fillColor=none;html=1;align=left;verticalAlign=middle;whiteSpace=wrap;rounded=0;fontSize=16;" vertex="1" parent="1">
          <mxGeometry x="67" y="350" width="266" height="157.5" as="geometry" />
        </mxCell>
        <mxCell id="o6vTE8f5mXq4AGFgfrk5-11" style="edgeStyle=none;curved=1;rounded=0;orthogonalLoop=1;jettySize=auto;html=1;fontSize=12;startSize=8;endSize=8;entryX=0.479;entryY=0.029;entryDx=0;entryDy=0;entryPerimeter=0;" edge="1" parent="1">
          <mxGeometry relative="1" as="geometry">
            <mxPoint x="193.5" y="249" as="sourcePoint" />
            <mxPoint x="193" y="337.5" as="targetPoint" />
          </mxGeometry>
        </mxCell>
        <mxCell id="o6vTE8f5mXq4AGFgfrk5-12" value="" style="rounded=0;whiteSpace=wrap;html=1;" vertex="1" parent="1">
          <mxGeometry x="-8" y="616" width="403" height="156" as="geometry" />
        </mxCell>
        <mxCell id="o6vTE8f5mXq4AGFgfrk5-13" style="edgeStyle=none;curved=1;rounded=0;orthogonalLoop=1;jettySize=auto;html=1;fontSize=12;startSize=8;endSize=8;entryX=0.479;entryY=0.029;entryDx=0;entryDy=0;entryPerimeter=0;" edge="1" parent="1">
          <mxGeometry relative="1" as="geometry">
            <mxPoint x="193.5" y="519.25" as="sourcePoint" />
            <mxPoint x="193" y="607.75" as="targetPoint" />
          </mxGeometry>
        </mxCell>
        <mxCell id="o6vTE8f5mXq4AGFgfrk5-15" value="&lt;div&gt;Database (PostgreSQL)&lt;/div&gt;&lt;div&gt;- Bảng người dùng&lt;/div&gt;&lt;div&gt;- Bảng thú cưng&lt;/div&gt;&lt;div&gt;- Bảng lịch khám&lt;/div&gt;&lt;div&gt;- Bảng dịch vụ&lt;/div&gt;&lt;div&gt;- Bảng feedback&lt;/div&gt;" style="text;strokeColor=none;fillColor=none;html=1;align=left;verticalAlign=middle;whiteSpace=wrap;rounded=0;fontSize=16;" vertex="1" parent="1">
          <mxGeometry x="79" y="624" width="218" height="140" as="geometry" />
        </mxCell>
      </root>
    </mxGraphModel>
  </diagram>
</mxfile>
